<svg width="190" height="231" viewBox="0 0 190 231" fill="none" xmlns="http://www.w3.org/2000/svg">
<path d="M46.3704 6.28466C45.4221 15.9396 42.6301 27.7187 41.2605 27.7187C40.8917 27.7187 38.3631 26.4314 35.6764 24.8866C31.3567 22.4406 24.7718 19.9947 22.3485 19.9947C21.7163 19.9947 22.0324 21.1533 23.5601 24.951C25.878 30.6796 27.9852 39.6265 27.7218 42.7161L27.5638 44.7758L22.8226 45.2264C9.02057 46.5137 2.54097 47.2862 2.54097 47.608C2.54097 47.8655 4.85888 50.8906 7.70358 54.4308C13.0242 60.9962 16.9225 68.0121 16.6591 70.458C16.5537 71.3593 13.8671 74.0624 8.33572 78.7614C3.85796 82.5592 0.117715 85.9701 0.0123558 86.2924C-0.0930034 86.6141 0.486472 87.0648 1.32935 87.322C6.96607 88.8028 9.38932 89.7679 11.3912 91.1842C14.1305 93.1795 16.9752 96.1405 18.3975 98.5864L19.4511 100.388L13.551 107.533C8.59911 113.583 7.75624 114.807 8.38843 115.515C8.80984 115.965 11.9706 117.446 15.4475 118.733C18.9243 120.02 21.9798 121.372 22.2431 121.694C22.5065 122.016 22.0851 125.298 21.0842 129.804C20.1886 133.988 19.6092 137.657 19.7672 137.978C20.0306 138.558 28.7227 138.043 30.145 137.4C31.462 136.82 31.9889 138.365 32.3576 143.45C32.5683 146.411 32.8844 148.921 33.0951 149.049C33.5165 149.372 39.4167 146.282 39.4167 145.767C39.4167 145.574 38.7318 144.222 37.889 142.742C35.4657 138.429 33.8326 133.988 32.3049 127.809C31.5674 124.591 30.4611 120.278 29.9344 118.153C29.3549 116.03 28.7754 113.133 28.67 111.717C27.9325 104.894 27.8272 102.384 28.354 102.384C28.6174 102.384 28.8808 103.478 28.8808 104.766C28.9334 107.662 30.0924 115.386 30.8826 118.153C31.1986 119.184 32.1996 122.981 33.0951 126.521C35.255 134.825 38.3631 142.291 41.0497 145.574C42.3141 147.119 45.0534 149.307 47.6873 150.787L52.1124 153.298L51.9546 155.679L51.7963 158.061L40.0488 162.824L28.3013 167.651L26.7736 173.766C25.9307 177.178 23.5601 187.284 21.4529 196.295C19.3458 205.242 17.3439 212.965 17.0278 213.352C16.7118 213.738 15.7636 217.214 14.9733 221.14C14.1832 225.002 13.4457 228.735 13.2876 229.315C13.0242 230.409 15.1314 230.473 52.5339 230.473C89.9891 230.473 92.0965 230.409 92.0965 229.315C92.0965 228.735 89.6203 225.388 86.5649 221.913C83.5095 218.437 81.0333 215.219 81.0333 214.703C81.0333 214.253 82.9301 211.871 85.1952 209.426C90.99 203.375 91.0428 202.989 88.6722 195.586C84.6686 183.164 76.0816 163.983 72.9207 160.378C71.9198 159.22 71.551 158.125 71.551 156.388C71.551 153.748 72.0253 153.105 74.7119 152.01C77.4513 150.916 80.138 148.406 81.982 145.252C83.4567 142.742 84.0888 142.291 88.1451 140.747C90.6212 139.781 92.623 138.751 92.623 138.494C92.623 138.172 91.6749 136.498 90.5157 134.825C88.2506 131.478 87.8291 129.096 89.357 128.517C89.8309 128.324 91.6749 128.001 93.4134 127.744C95.1514 127.551 96.7321 127.229 96.9426 127.036C97.417 126.779 94.7303 117.639 94.0982 117.317C93.8872 117.188 93.6767 116.609 93.6767 115.965C93.6767 115.193 94.4143 114.614 96.3106 114.034C99.5765 113.004 107.373 108.434 107.373 107.598C107.373 107.211 106.372 106.31 105.161 105.538C98.4179 101.354 92.9391 96.5266 94.0455 95.7543C94.256 95.6254 96.205 94.8531 98.3123 94.0807C100.42 93.3084 103.844 91.6993 105.951 90.5402C109.586 88.545 117.067 83.1381 116.75 82.7519C116.54 82.5592 102.263 75.0926 100.893 74.513C100.261 74.1913 100.104 73.8051 100.367 73.2256C100.577 72.7111 104.054 68.5917 108.058 64.0861C112.009 59.5158 115.275 55.5894 115.275 55.3319C115.275 54.817 112.009 54.109 102.369 52.4355C98.8917 51.7918 95.8362 51.1481 95.6257 50.8906C95.3624 50.6332 97.7858 44.9689 100.999 38.3392C106.215 27.4612 107.215 25.144 106.688 25.144C106.583 25.144 102.263 27.0107 97.1009 29.3278C89.5676 32.6749 87.513 33.3186 86.9865 32.6749C85.8273 31.2589 84.7209 20.6384 84.7209 11.1121V1.90771L80.454 4.67547C75.4495 7.95817 68.7593 14.3304 65.6511 18.7718C64.4919 20.5096 63.2805 21.9257 63.07 21.9257C62.8062 21.9257 60.8044 18.9649 58.5393 15.296C54.6413 8.98803 48.0561 0.0410767 47.3186 0.0410767C47.1079 0.0410767 46.6864 2.8732 46.3704 6.28466ZM47.8454 167.587C45.8962 169.454 35.9398 201.573 36.73 203.246C36.9934 203.825 39.2586 206.465 41.7872 209.168C44.3686 211.871 46.5284 214.382 46.6338 214.768C46.7391 215.154 46.107 216.57 45.2114 217.922C44.3686 219.274 43.6311 219.981 43.6311 219.531C43.6311 219.145 44.1051 217.986 44.7373 217.085L45.8436 215.348L40.7863 209.554C37.2568 205.499 35.7291 203.311 35.7291 202.281C35.7291 200.221 41.7346 180.525 45.4221 170.42C46.3177 167.973 47.0552 166.75 47.6873 166.75C48.5302 166.815 48.5302 166.879 47.8454 167.587Z" fill="url(#paint0_linear_4_59)" fill-opacity="0.15"/>
<path d="M136.751 89.6453C122.104 92.9474 114.025 100.134 103.548 119.365C101.255 123.509 101.098 124.027 101.098 128.041C101.098 131.149 100.577 134.192 99.2222 139.436C96.9288 148.307 97.0327 150.379 100.316 157.307C101.619 160.027 102.662 162.617 102.662 162.941C102.662 163.329 101.984 164.559 101.098 165.725C98.3357 169.415 98.3879 175.113 101.255 178.933C102.923 181.07 106.832 183.077 107.875 182.235C108.135 182.042 107.77 180.552 107.093 178.868C106.363 177.25 105.79 175.437 105.842 174.854C105.842 174.207 106.102 174.401 106.415 175.437C107.301 177.833 111.419 185.732 113.452 188.84C117.465 195.056 126.118 201.336 134.197 203.991C136.647 204.768 140.973 205.48 144.622 205.675C148.061 205.869 150.407 206.257 149.834 206.517C146.706 207.876 132.32 205.351 125.7 202.243L122.261 200.624L121.374 202.113C118.091 207.487 114.338 219.725 113.399 228.013L113.139 230.473H145.455C176 230.473 177.772 230.409 177.511 229.308C177.355 228.725 176.521 224.84 175.687 220.696C173.863 211.761 172.403 207.293 170.057 203.473C169.119 201.919 168.338 200.301 168.338 199.847C168.389 199.459 169.692 197.905 171.309 196.48C174.227 193.89 178.241 188.646 180.43 184.502C181.16 183.142 182.307 182.042 183.349 181.653C184.235 181.329 185.903 179.97 187.05 178.675C190.646 174.401 191.011 168.574 187.832 165.142C186.737 163.976 186.581 163.394 186.893 161.322C187.102 160.027 187.414 158.797 187.623 158.602C187.832 158.408 188.301 156.53 188.666 154.393C189.187 151.286 189.187 148.89 188.666 142.221C188.301 137.689 187.779 133.998 187.519 133.998C187.258 133.998 187.102 132.185 187.154 129.918C187.258 126.357 186.998 125.257 185.121 120.725C182.619 114.573 178.919 107.84 175.166 102.789C172.872 99.6808 171.36 98.4506 165.471 94.8248C161.301 92.2996 157.027 90.1628 154.942 89.6453C150.616 88.4793 141.755 88.4793 136.751 89.6453Z" fill="url(#paint1_linear_4_59)" fill-opacity="0.15"/>
<path d="M74.3017 159.338C74.3017 159.536 75.2785 161.373 76.5123 163.407C77.7462 165.442 79.4429 168.657 80.3683 170.429C82.7849 175.35 88.389 190.706 90.0343 196.809C91.8335 203.305 91.6795 203.765 86.2809 209.605C84.2242 211.836 82.5279 214.199 82.5279 214.724C82.5279 215.315 84.8411 218.464 87.6692 221.877C90.7542 225.486 92.8104 228.439 92.8104 229.227C92.8104 230.408 93.2218 230.473 100.008 230.473C105.407 230.473 107.207 230.276 107.207 229.62C107.207 226.864 94.6101 169.051 93.4273 166.295C93.2218 165.77 89.9313 164.391 86.1269 163.145C82.322 161.963 78.3631 160.52 77.2832 159.929C75.1755 158.879 74.3017 158.682 74.3017 159.338Z" fill="url(#paint2_linear_4_59)" fill-opacity="0.15"/>
<defs>
<linearGradient id="paint0_linear_4_59" x1="58.3799" y1="0.0410767" x2="58.3799" y2="230.473" gradientUnits="userSpaceOnUse">
<stop stop-color="#8B8B8B"/>
<stop offset="1" stop-color="#D9D9D9" stop-opacity="0"/>
</linearGradient>
<linearGradient id="paint1_linear_4_59" x1="143.827" y1="88.7708" x2="143.827" y2="230.473" gradientUnits="userSpaceOnUse">
<stop stop-color="#8B8B8B"/>
<stop offset="1" stop-color="#D9D9D9" stop-opacity="0"/>
</linearGradient>
<linearGradient id="paint2_linear_4_59" x1="90.7542" y1="158.96" x2="90.7542" y2="230.473" gradientUnits="userSpaceOnUse">
<stop stop-color="#8B8B8B"/>
<stop offset="1" stop-color="#D9D9D9" stop-opacity="0"/>
</linearGradient>
</defs>
</svg>
